PathFileType	4	(X/Y/Z)	39_2_31_p1_0-446_filt_butterworth.trc
DataRate	CameraRate	NumFrames	NumMarkers	Units	OrigDataRate	OrigDataStartFrame	OrigNumFrames
49.0	49.0	5	27	m	49.0	167	446
Frame#	Time	RHip			RKnee			RAnkle			RBigToe			RSmallToe			RHeel			LHip			LKnee			LAnkle			LBigToe			LSmallToe			LHeel			Neck			Head			Nose			RShoulder			RElbow			RWrist			RThumb			RIndex			RPinky			LShoulder			LElbow			LWrist			LThumb			LIndex			LPinky			
		X1	Y1	Z1	X2	Y2	Z2	X3	Y3	Z3	X4	Y4	Z4	X5	Y5	Z5	X6	Y6	Z6	X7	Y7	Z7	X8	Y8	Z8	X9	Y9	Z9	X10	Y10	Z10	X11	Y11	Z11	X12	Y12	Z12	X13	Y13	Z13	X14	Y14	Z14	X15	Y15	Z15	X16	Y16	Z16	X17	Y17	Z17	X18	Y18	Z18	X19	Y19	Z19	X20	Y20	Z20	X21	Y21	Z21	X22	Y22	Z22	X23	Y23	Z23	X24	Y24	Z24	X25	Y25	Z25	X26	Y26	Z26	X27	Y27	Z27	
167	3.4081632653061225	0.3182405411045859	0.626227577248309	0.48114148860806116	0.2721091667834292	0.7534648056530733	0.9351134409689722	0.22794633336825465	0.802285665704134	1.3105251027135352	0.21227432133991636	0.6298468052391575	1.3406052670621431	0.2812014646769945	0.6568173421050592	1.3489936800127817	0.1960653015227109	0.9151616979112659	1.3798001407062699	0.08118420934787735	0.6630607362524781	0.4785019071871303	0.05902504986302411	0.7428851910468903	0.8980555899433437	0.0275700408754845	0.8346752005723909	1.2971938075981533	0.057031138350030874	0.6426792062862963	1.329594396765735	-0.0009791517063008823	0.6955430412302362	1.3407442637485456	0.036892067447312014	0.8663146527109093	1.3479858631898192	0.2407222862144384	0.5752307018840566	-0.04712796891121311	0.2574247291982392	0.47390169138944105	-0.27602460747495117	0.2525400812088401	0.40259484033712944	-0.1397683312419981	0.390908767959956	0.5836564899226475	0.036882875120587195	0.43954213074689263	0.6118844572085651	0.2989933879711636	0.40916020283927834	0.5558816703225754	0.5481361935743774	0.3261010969671163	0.5425902259282569	0.6654547542174011	0.3423872151197705	0.5224714295540496	0.682287060994289	0.3869729488032159	0.6041639652763081	0.6930238178302102	0.06762329515567118	0.6091875399948884	0.021592484078102256	-0.006310124305323371	0.6372137185042498	0.2968967032348022	-0.01504864694903871	0.573034235691849	0.5330139043075441	0.00039940263199406785	0.5922061591121791	0.644029352319969	-0.024540493005338827	0.5416235152004585	0.6616859406611699	-0.05964825159193889	0.585139543896694	0.6484664394216876
168	3.4285714285714284	0.3179593512402199	0.6253937677820693	0.4795466283566253	0.2736514072093426	0.7541738435998783	0.9342695912238492	0.2290236326761456	0.8078901903614939	1.3108928260108426	0.21104820466272114	0.6413048453357729	1.343915803507039	0.28094770563354576	0.6638268806839742	1.352089082703648	0.1973668767091813	0.9193910989125178	1.3798904984725713	0.08112821270660833	0.6628062330806421	0.47834986367633703	0.05908034585478775	0.7428050629900123	0.8979674142492633	0.028142659964039023	0.8333774408528203	1.2970984241555938	0.057060927104534885	0.6427515218265064	1.3295868315682369	-0.0009238347439014917	0.6956503968178875	1.3406259324124	0.036831424010881526	0.8652193053046715	1.347173511815333	0.23951838000291628	0.5788750583588074	-0.047066707863017046	0.2570559629750047	0.4747604082097033	-0.276303971836369	0.2512805397610669	0.40602147837115043	-0.13984303189575215	0.39106103689011323	0.5838165575299545	0.03384685763870757	0.4380869888566792	0.6071314863526024	0.2975639335758936	0.4091332175224467	0.5558524030693188	0.5474414463012822	0.3231373899356982	0.5479358168984176	0.6656026695449693	0.33988587062109604	0.5242429007225712	0.6827827561283993	0.3837812494237711	0.6083111659812417	0.6935988593588398	0.06814940450022557	0.613102430224587	0.0217319839738664	-0.00673555878154302	0.6380715265056702	0.29700668431197663	-0.014679052057421751	0.5786403505441984	0.5342162424950451	0.00205119283457306	0.5918831287463724	0.6440831136754792	-0.0215100182722184	0.542768075711024	0.6634346969940172	-0.057782175730181184	0.5883852031973323	0.6499859480833861
169	3.4489795918367347	0.31790298727133265	0.6258885818406505	0.477412080269414	0.27482005269304033	0.7553342269055185	0.9334715033197416	0.22984913567636417	0.8119882929453444	1.3111188851128532	0.2101778039526607	0.6492449509354719	1.3462153766110252	0.28072344732154997	0.6686254140874037	1.354244254631873	0.19790755825608172	0.9203347840838724	1.379910736864756	0.0809439066660517	0.6626142188446144	0.4783237940664464	0.059098413909601535	0.7427856355421543	0.8978339884962485	0.02853623837275339	0.8327847668410714	1.2970114076888917	0.05708028397424807	0.6427767159789496	1.329595504152469	-0.0008502963810399788	0.6956585425626558	1.3404712819773643	0.03667930662931659	0.8647870909010572	1.3455630360447532	0.2375859350388846	0.5841636833032414	-0.047025248860256226	0.2571370836283397	0.4744530682616891	-0.27703646001126975	0.2494307680581728	0.4109288472477857	-0.13991160024537833	0.3911407323987305	0.5840005395139762	0.03178460409388502	0.4370805673589711	0.6038854354594578	0.2964042689151473	0.40909484324387885	0.5555974997506365	0.5470594038319914	0.3215438726953756	0.5517909613833653	0.6666135889088486	0.3382210062082221	0.5282452974006521	0.6838269430599929	0.38076379360951174	0.6143851125149675	0.6942510829432955	0.06825642472840156	0.6139137622529963	0.02177163520538639	-0.006528338264814731	0.6376729099267018	0.2968796367642525	-0.013925363864241602	0.581747185668385	0.5348998475344856	0.0052911061714144515	0.5920751770297705	0.6442488257892843	-0.01780493836392464	0.5439497107990171	0.6654681293464264	-0.0564403266812306	0.5906442876677576	0.6505586101783916
170	3.4693877551020407	0.3179055177608909	0.6262930213303404	0.47657820847588245	0.2751578644095458	0.7563067390556741	0.9332050261294783	0.23008031286692537	0.8129667532884789	1.3111409194645165	0.20990414477289512	0.651524662401969	1.3468850315967265	0.2806196875730202	0.6696949888806342	1.354759762108209	0.19792065422426725	0.9198594882924729	1.3799331652870017	0.08077311389320926	0.6627547619328534	0.47839045302628197	0.05911609283683033	0.7427372329085187	0.8981104160463846	0.028562895325745127	0.8328974254969508	1.2966128819087674	0.05708539890236668	0.6427443073676795	1.3296126109997475	-0.0008269537027035084	0.6955366539654401	1.3408252285257105	0.036510881087496734	0.8650302346055931	1.3437851718963922	0.23614841386937385	0.5877645809164765	-0.04702703040450482	0.25720855086500843	0.47426820089605704	-0.27760736541244735	0.24816732222990912	0.4139626793009281	-0.13996496266131955	0.391173899770508	0.5841301726869756	0.0313424226625411	0.4368198044124307	0.6031682271134464	0.29567351747328785	0.4090804497027774	0.5552394286192266	0.54779202049819	0.3213470923044408	0.5525955285330166	0.6679886141833217	0.3380126983667745	0.5332444186315148	0.6851208826189386	0.37898224850733986	0.6185834472794122	0.6951834472141363	0.06818758214629939	0.6134455847980131	0.02175980703343256	-0.00634415051522121	0.6373768853351228	0.2967168205935873	-0.012156717893345645	0.5794338475327593	0.5344235334106746	0.008963594877710599	0.5931744101018211	0.644512645913539	-0.015277210107701125	0.544934970448222	0.668227640843803	-0.05553619655744797	0.5912647924268186	0.649285715635867
171	3.489795918367347	0.3179462525406415	0.6262918754453288	0.47759023405852036	0.2750980000876981	0.7565187354521872	0.9332758423936345	0.23001420297941438	0.8125041621546034	1.3111017398863987	0.20990125011855998	0.6513117694420401	1.3468595682408626	0.28059198233650456	0.6693143594408326	1.3546246646222035	0.19782145451572034	0.9195468289894164	1.3799928689174668	0.08120459375239707	0.6618131027806518	0.4778007381656006	0.05918939283507296	0.7425058041515756	0.8992589919823228	0.028446187091489664	0.8331647377626394	1.295478711874202	0.05708250925561823	0.6426998617624201	1.329615938911994	-0.0008786564439992995	0.6951830019357711	1.342101148346936	0.03645672235409014	0.8657938951478334	1.3433104430450977	0.2360968783016243	0.5886672679730415	-0.047046243200158495	0.2571914051231284	0.4744045940398428	-0.2778185741928381	0.24787650795541033	0.41432790317155255	-0.14001101847802205	0.39122683177940343	0.5841655633484767	0.03158314459925195	0.4368965006541258	0.603536832850881	0.29534742446791923	0.4090790957242708	0.554992767411267	0.549884009878459	0.32157180442552447	0.5520742614987888	0.6688118478844215	0.33798016073803683	0.5366454849401839	0.6860852761599455	0.3770644723474669	0.6198335810992003	0.6970813179421066	0.0681454627206779	0.6131649815389599	0.021731962430049805	-0.0063473744731665175	0.6373518009158332	0.2968791432697873	-0.009884443018683502	0.5719149032096567	0.532809843278226	0.011371648133159825	0.5942984482779481	0.6447360455497138	-0.01439556591331258	0.5453777257606934	0.6704936638728062	-0.05474290917648939	0.5909192113565036	0.6466123148352927
